<?xml version="1.0" encoding="UTF-8"?>
<svg viewBox="0 0 178 169" version="1.1" 
  xmlns="http://www.w3.org/2000/svg" 
  xmlns:xlink="http://www.w3.org/1999/xlink">
  <!-- back -->
  <symbol id="back" viewBox="0 0 24 24">
    <path d="M20 13c0 4.4-3.6 8-8 8s-8-3.6-8-8h2c0 3.3 2.7 6 6 6s6-2.7 6-6-2.7-6-6-6v4L7 6l5-5v4c4.4 0 8 3.6 8 8z"/>
  </symbol>
  <!-- baggage -->
  <symbol id="baggage" viewBox="0 0 24 24">
    <path d="M20 6h-4V4c0-1.11-.89-2-2-2h-4c-1.11 0-2 .89-2 2v2H4c-1.11 0-1.99.89-1.99 2L2 19c0 1.11.89 2 2 2h16c1.11 0 2-.89 2-2V8c0-1.11-.89-2-2-2zm-6 0h-4V4h4v2z"/>
  </symbol>
  <!-- baggage-not -->
  <symbol id="baggage-not" viewBox="0 0 24 24">
    <path fill-rule="nonzero" d="M19 6h-4V4c0-1.11-.89-2-2-2H9c-1.11 0-2 .89-2 2v2H3c-1.11 0-1.99.89-1.99 2L1 19c0 1.11.89 2 2 2h16c1.11 0 2-.89 2-2V8c0-1.11-.89-2-2-2zm-6 0H9V4h4v2z"/>
    <path fill="#EF4836" d="M1.251 1.988l19.75 19.753L19.742 23-.013 3.25z"/>
  </symbol>
  <!-- change -->
  <symbol id="change" viewBox="0 0 24 24">
    <path d="M19 8l-4 4h3c0 3.31-2.69 6-6 6a5.87 5.87 0 0 1-2.8-.7l-1.46 1.46A7.93 7.93 0 0 0 12 20c4.42 0 8-3.58 8-8h3l-4-4zM6 12c0-3.31 2.69-6 6-6 1.01 0 1.97.25 2.8.7l1.46-1.46A7.93 7.93 0 0 0 12 4c-4.42 0-8 3.58-8 8H1l4 4 4-4H6z"/>
  </symbol>
  
  <!-- meal -->
  <symbol id="meal" viewBox="0 0 24 24">
    <path d="M8.1,13.34 L10.93,10.51 L3.91,3.5 C2.35,5.06 2.35,7.59 3.91,9.16 L8.1,13.34 L8.1,13.34 Z M14.88,11.53 C16.41,12.24 18.56,11.74 20.15,10.15 C22.06,8.24 22.43,5.5 20.96,4.03 C19.5,2.57 16.76,2.93 14.84,4.84 C13.25,6.43 12.75,8.58 13.46,10.11 L3.7,19.87 L5.11,21.28 L12,14.41 L18.88,21.29 L20.29,19.88 L13.41,13 L14.88,11.53 L14.88,11.53 Z"></path>
  </symbol>
</svg>